<?xml version="1.0" encoding="utf-8"?>
<!-- Generator: Adobe Illustrator 25.0.1, SVG Export Plug-In . SVG Version: 6.00 Build 0)  -->
<svg version="1.0" id="katman_1" xmlns="http://www.w3.org/2000/svg" xmlns:xlink="http://www.w3.org/1999/xlink" x="0px" y="0px"
	 viewBox="0 0 1694 1136" style="enable-background:new 0 0 1694 1136;" xml:space="preserve">
<style type="text/css">
	.st0{fill-rule:evenodd;clip-rule:evenodd;fill:#E5E9F0;}
	.st1{fill-rule:evenodd;clip-rule:evenodd;fill:#C2CCDE;}
	.st2{fill-rule:evenodd;clip-rule:evenodd;fill:#FFFFFF;stroke:#00266B;stroke-width:14.0482;stroke-linejoin:round;}
	.st3{fill-rule:evenodd;clip-rule:evenodd;fill:#00266B;}
	.st4{fill:none;stroke:#00266B;stroke-width:14.0482;stroke-linecap:square;}
</style>
<g id="Page-1">
	<g id="_x30_2" transform="translate(-100.000000, -1162.000000)">
		<g id="icon-flight-schedule" transform="translate(100.000000, 1162.000000)">
			<circle id="Oval" class="st0" cx="846.6" cy="568.2" r="421.4"/>
			<g id="Group-24" transform="translate(12.000000, 15.000000)">
				<ellipse id="Oval_1_" class="st1" cx="827.1" cy="711.6" rx="245.4" ry="47.3"/>
				<path id="Rectangle" class="st2" d="M647.5,399.3h359.2c15.5,0,28.1,12.6,28.1,28.1v246.7c0,15.5-12.6,28.1-28.1,28.1H647.5
					c-15.5,0-28.1-12.6-28.1-28.1V427.4C619.4,411.8,632,399.3,647.5,399.3z"/>
				<path id="Rectangle_1_" class="st3" d="M709,342.5h9.7c7.8,0,14,6.3,14,14v66.6c0,7.8-6.3,14-14,14H709c-7.8,0-14-6.3-14-14
					v-66.6C695,348.8,701.2,342.5,709,342.5z"/>
				<path id="Rectangle-Copy" class="st3" d="M935.6,342.5h9.7c7.8,0,14,6.3,14,14v66.6c0,7.8-6.3,14-14,14h-9.7
					c-7.8,0-14-6.3-14-14v-66.6C921.5,348.8,927.8,342.5,935.6,342.5z"/>
				<line id="Line-3" class="st4" x1="629.3" y1="493.9" x2="1024.9" y2="493.9"/>
				<rect id="Rectangle_2_" x="657.2" y="550.7" class="st1" width="339.8" height="37.9"/>
				<rect id="Rectangle-Copy-2" x="657.2" y="607.5" class="st1" width="339.8" height="37.9"/>
			</g>
		</g>
	</g>
</g>
</svg>
