<svg width="44" height="44" viewBox="0 0 44 44" fill="none" xmlns="http://www.w3.org/2000/svg">
<path d="M20.8039 0.538765C17.6877 0.699966 14.8245 1.45087 12.1246 2.81393C5.61458 6.09916 1.21676 12.4227 0.418829 19.6379C0.31271 20.599 0.28618 21.1602 0.294343 22.2192C0.308629 23.8475 0.459644 25.1881 0.806572 26.7491C1.17391 28.3999 1.73103 29.9731 2.50856 31.5443C3.40037 33.3461 4.4085 34.8377 5.78396 36.3905C6.16762 36.8231 7.17576 37.8209 7.60635 38.1964C9.82873 40.1267 12.2674 41.5285 14.9775 42.4304C16.8489 43.0528 18.7244 43.4038 20.7733 43.5119C21.2263 43.5364 22.4487 43.5344 22.9059 43.5099C27.4853 43.2609 31.775 41.6183 35.3177 38.7555C36.4136 37.8679 37.638 36.6436 38.5258 35.5478C40.9502 32.5483 42.5175 28.9733 43.0766 25.1657C43.244 24.0332 43.2909 23.3251 43.293 22.0355C43.293 20.9786 43.2807 20.7011 43.1991 19.8828C42.5848 13.6327 39.2584 7.97847 34.0688 4.36472C31.6444 2.67722 28.9342 1.52229 26.0343 0.938705C25.1425 0.75914 24.0344 0.612221 23.2222 0.567329C23.0936 0.561207 22.965 0.551006 22.9365 0.546925C22.8365 0.528561 21.1263 0.522442 20.8039 0.538765ZM25.5384 12.2697C25.5629 12.2717 25.5037 12.3105 25.1813 12.4962C25.0527 12.5717 24.6446 12.8084 24.2773 13.0226L23.6079 13.4144H22.6569H21.7059L21.8671 13.5348C22.3161 13.8694 22.6181 14.2041 22.9977 14.7856C23.2834 15.2182 23.5752 15.8446 23.6691 16.2201C23.8344 16.8853 23.8732 17.7199 23.7711 18.4749C23.663 19.2931 23.414 19.9277 22.9773 20.5133C22.6283 20.9826 22.3487 21.2826 21.8039 21.7703C21.3039 22.2192 21.1753 22.36 20.908 22.7538C20.6896 23.0803 20.6121 23.319 20.61 23.67C20.61 23.8863 20.6631 24.1189 20.7468 24.274C20.8141 24.3964 21.1712 24.827 21.3365 24.9861C21.4039 25.0494 21.6875 25.2881 21.9671 25.5167C22.7161 26.1247 22.8671 26.2574 23.2834 26.6757C23.7018 27.094 24.0528 27.5021 24.2528 27.802C24.6793 28.4346 24.9201 29.3508 24.9201 30.3302C24.9221 31.6831 24.4079 32.8645 23.3467 33.9501C22.7549 34.5541 22.2794 34.905 21.559 35.2703C20.2304 35.9416 18.557 36.2804 16.6714 36.2579C15.4694 36.2436 14.4592 36.0885 13.5796 35.7845C12.7246 35.4866 12.0674 35.0744 11.4042 34.4112C10.8634 33.8725 10.543 33.3481 10.3757 32.7299C10.1226 31.7933 10.2389 30.9322 10.7634 29.8711C11.0797 29.2345 11.4552 28.7937 12.096 28.3162C12.4307 28.0653 12.7307 27.8857 13.1919 27.6572C13.7245 27.3939 13.9572 27.296 14.4653 27.1266C15.1653 26.892 15.6877 26.7797 16.5693 26.6695C17.3428 26.5736 17.8632 26.5247 18.3407 26.5022C18.6305 26.4879 18.6509 26.4859 18.6264 26.4533C18.4958 26.2778 18.2183 25.8391 18.0917 25.6146C17.8244 25.1371 17.7468 24.8535 17.7448 24.3515C17.7448 23.9985 17.7611 23.9189 17.9203 23.468C17.9877 23.2782 18.0387 23.1231 18.0366 23.1191C18.0326 23.117 17.9101 23.1252 17.7632 23.1374C16.9877 23.2088 16.1979 23.1537 15.5183 22.9844C15.1428 22.8905 14.8796 22.7946 14.5592 22.6375C13.9551 22.3396 13.5205 21.9805 12.9368 21.2908C12.6164 20.9133 12.2633 20.3093 12.098 19.8624C12.0083 19.6155 11.9042 19.1972 11.8634 18.9136C11.8123 18.5769 11.8123 17.8464 11.8613 17.5056C12.0287 16.3446 12.5511 15.3121 13.4878 14.2959C13.747 14.0143 14.0388 13.7756 14.4776 13.4858C15.1041 13.0736 15.6653 12.8084 16.2938 12.6288C16.902 12.4553 17.9591 12.3064 18.7938 12.2737C19.0529 12.2635 25.4446 12.2595 25.5384 12.2697ZM30.7934 14.051V15.6998H32.4464H34.0994V16.5058V17.3118L32.4525 17.3158L30.8036 17.322L30.7974 18.9707L30.7934 20.6174L29.9914 20.6133L29.1914 20.6072L29.1873 19.0156C29.1832 18.1402 29.1812 17.3995 29.1812 17.3669V17.3118H27.5282H25.8752L25.8792 16.5098L25.8854 15.71L27.5343 15.7038C29.0832 15.6998 29.1812 15.6977 29.1832 15.663C29.1853 15.6447 29.1832 14.9101 29.1832 14.0306C29.1812 13.1532 29.1853 12.4247 29.1914 12.4145C29.1995 12.4003 29.4873 12.3962 29.9995 12.3982L30.7954 12.4043L30.7934 14.051Z" fill="#395B64"/>
<path d="M17.0384 13.3326C16.3853 13.4121 15.8425 13.6754 15.3772 14.1406C14.969 14.5467 14.6507 15.2506 14.5384 15.9954C14.4976 16.2668 14.4915 16.9239 14.5282 17.2707C14.5751 17.7217 14.6833 18.24 14.8282 18.6889C15.018 19.2868 15.3935 20.103 15.671 20.5254C16.1016 21.1804 16.6669 21.7211 17.2159 21.9986C17.8036 22.2986 18.42 22.372 19.0995 22.2251C19.8118 22.0721 20.4567 21.6456 20.7281 21.1457C21.0566 20.5437 21.1301 20.1662 21.1301 19.0868C21.1281 18.4114 21.1056 18.1522 20.9975 17.6278C20.7668 16.5076 20.1995 15.1833 19.675 14.5365C19.4403 14.2467 19.1648 13.9835 18.9261 13.8223C18.3975 13.4652 17.6179 13.2632 17.0384 13.3326Z" fill="#395B64"/>
<path d="M17.948 27.3839C17.5358 27.4186 17.3644 27.4431 16.897 27.5349C16.4583 27.6226 15.8848 27.7634 15.6011 27.8573C15.2971 27.9573 14.7787 28.1899 14.5501 28.3266C13.9338 28.698 13.54 29.1265 13.2236 29.7692C13.0012 30.2181 12.9257 30.6018 12.9441 31.1976C12.9543 31.5894 12.991 31.8199 13.091 32.1219C13.1726 32.3688 13.3726 32.7504 13.5298 32.9626C13.9624 33.5401 14.6787 34.087 15.4134 34.3992C16.7358 34.9623 18.6133 35.097 20.097 34.7358C21.5337 34.3849 22.5316 33.4911 22.801 32.3097C22.8826 31.9526 22.9071 31.4445 22.8561 31.0874C22.7785 30.5263 22.5357 29.9712 22.1847 29.555C21.8479 29.155 20.9765 28.4286 19.9153 27.6675L19.5255 27.388L19.35 27.3716C19.0725 27.3471 18.2868 27.3533 17.948 27.3839Z" fill="#395B64"/>
</svg>
