<?xml version="1.0" encoding="utf-8"?>
<svg version="1.0" width="1024.000000pt" height="1024.000000pt" viewBox="0 0 1024.000000 1024.000000" preserveAspectRatio="xMidYMid meet" xmlns="http://www.w3.org/2000/svg">
  <g transform="translate(0.000000,1024.000000) scale(0.100000,-0.100000)" fill="#000000" stroke="none">
    <path d="M4568 7280 c-57 -10 -151 -55 -207 -100 -39 -31 -135 -177 -191 -290 -12 -25 -28 -52 -35 -60 -7 -8 -43 -73 -79 -145 -37 -71 -73 -136 -80 -145 -7 -8 -27 -44 -45 -80 -17 -36 -51 -101 -76 -145 -24 -44 -54 -100 -67 -125 -13 -25 -56 -103 -94 -175 -39 -71 -93 -170 -119 -220 -26 -49 -69 -128 -95 -175 -188 -337 -360 -688 -389 -795 -31 -113 7 -208 102 -257 21 -10 72 -28 113 -39 41 -10 109 -28 152 -40 42 -11 151 -36 242 -55 91 -18 226 -47 300 -64 133 -30 272 -57 440 -86 158 -27 305 18 369 113 15 21 38 54 53 73 37 48 160 295 212 426 51 129 191 465 212 511 8 17 14 34 14 37 0 3 9 25 19 49 11 23 31 69 44 102 14 33 70 166 125 295 54 129 112 269 127 310 16 41 32 80 37 86 8 11 90 220 115 294 8 25 33 83 55 128 70 149 88 194 88 219 0 13 7 40 15 60 28 66 11 139 -47 200 -33 35 -117 79 -176 92 -61 13 -1057 14 -1134 1z m1216 -99 c16 -15 26 -35 26 -52 0 -38 -68 -242 -120 -359 -23 -52 -66 -158 -95 -235 -30 -77 -65 -164 -79 -192 -14 -29 -26 -56 -26 -59 0 -3 -13 -36 -29 -72 -15 -37 -45 -107 -66 -157 -21 -49 -44 -101 -51 -115 -12 -22 -51 -116 -106 -255 -11 -27 -74 -176 -140 -330 -143 -335 -139 -325 -168 -400 -40 -105 -161 -328 -215 -395 -61 -76 -140 -134 -207 -152 -38 -9 -63 -9 -130 2 -149 24 -381 68 -473 90 -49 11 -184 41 -300 65 -299 63 -382 83 -403 94 -32 17 -54 61 -55 110 -2 52 11 80 205 456 63 121 174 337 248 480 73 143 142 274 151 290 10 17 32 57 48 90 17 33 69 130 117 215 47 85 106 196 131 245 109 219 268 499 303 535 8 8 24 27 35 40 29 37 78 69 121 79 22 5 304 9 646 8 l606 -2 26 -24z" style="fill: rgb(44, 51, 51);"/>
    <path d="M5130 7139 c0 -5 5 -7 10 -4 6 3 10 8 10 11 0 2 -4 4 -10 4 -5 0 -10 -5 -10 -11z"/>
    <path d="M4963 7123 c-14 -35 11 -48 98 -51 90 -3 99 4 22 18 -47 9 -46 9 20 7 74 -3 88 13 21 24 -107 17 -155 18 -161 2z"/>
    <path d="M4373 6978 c-6 -7 -67 -128 -137 -268 -71 -140 -134 -262 -142 -270 -7 -9 -29 -50 -48 -91 -19 -41 -52 -106 -74 -145 -79 -139 -119 -216 -302 -579 -267 -530 -269 -535 -192 -554 192 -46 266 -62 285 -60 12 1 29 -1 37 -4 8 -3 47 -10 85 -16 127 -18 478 -81 600 -107 66 -14 148 -29 182 -33 l62 -7 30 68 c17 37 31 71 31 73 0 3 22 54 49 113 87 189 99 217 106 242 4 14 20 52 35 85 91 202 115 257 183 415 42 96 99 227 127 290 29 63 78 176 110 250 32 74 76 178 99 230 91 208 152 366 143 374 -3 3 -288 6 -632 6 -490 0 -630 -3 -637 -12z m133 -543 c6 -8 17 -57 23 -107 15 -112 21 -138 30 -138 4 0 59 50 122 110 63 61 123 113 134 116 11 3 57 4 103 2 l83 -3 -104 -95 c-57 -52 -143 -129 -190 -170 -47 -41 -89 -84 -92 -95 -3 -11 6 -60 20 -110 15 -49 33 -117 41 -150 12 -48 21 -64 47 -81 24 -15 31 -26 29 -44 -1 -13 -7 -27 -13 -30 -10 -7 -186 -3 -206 5 -7 2 -17 23 -24 47 -6 24 -19 72 -29 108 -10 36 -21 78 -24 93 l-7 28 -60 -53 c-33 -29 -88 -79 -122 -110 l-62 -58 -97 0 c-62 0 -99 4 -104 12 -8 13 71 90 175 168 41 30 81 62 90 70 9 9 42 36 75 60 32 24 60 49 62 55 3 6 -7 58 -21 116 -39 161 -32 237 25 267 29 15 80 8 96 -13z" style="fill: rgb(3, 132, 164);"/>
    <path d="M3872 4893 c-60 -29 -112 -112 -112 -177 0 -38 43 -122 70 -136 29 -15 107 -12 143 6 107 54 162 187 106 258 -47 60 -140 82 -207 49z" style="fill: rgb(44, 51, 51);"/>
    <path d="M6153 7003 c-7 -15 -12 -27 -10 -27 1 -1 12 -7 24 -13 13 -7 35 -13 50 -13 16 0 39 -9 53 -20 14 -11 31 -20 38 -20 6 0 12 -6 12 -13 0 -18 -59 -21 -79 -4 -27 22 -104 48 -114 38 -5 -5 -9 -20 -9 -33 0 -14 -9 -28 -20 -34 -11 -5 -38 -50 -62 -104 -24 -52 -58 -124 -75 -160 -18 -36 -48 -99 -66 -140 -18 -41 -53 -118 -78 -170 -66 -138 -165 -355 -197 -430 -15 -36 -64 -146 -110 -245 -45 -99 -89 -196 -97 -215 -8 -19 -23 -53 -33 -75 -36 -78 -93 -211 -121 -280 -16 -38 -34 -79 -41 -90 -29 -51 -100 -245 -105 -290 -4 -42 -2 -53 16 -69 26 -23 27 -51 4 -65 -16 -9 -16 -10 -2 -11 9 0 19 -6 22 -14 3 -8 16 -16 29 -18 16 -2 22 -9 20 -21 -4 -23 -49 -90 -68 -100 -8 -4 -14 -14 -14 -21 0 -7 -17 -22 -39 -34 -45 -26 -51 -27 -51 -9 0 7 -9 20 -20 30 -20 17 -20 16 -20 -119 0 -139 4 -150 38 -102 7 10 19 18 25 19 14 0 58 53 61 72 1 6 22 39 46 72 25 33 60 89 78 124 18 34 44 81 58 102 29 46 29 49 7 49 -10 0 4 12 31 26 27 13 53 23 59 21 18 -6 67 -238 67 -319 0 -21 7 -52 15 -68 14 -27 18 -28 40 -18 24 11 104 145 170 287 l30 63 -24 19 c-13 10 -28 19 -35 19 -6 0 -23 -31 -38 -68 -15 -37 -37 -82 -48 -99 -20 -33 -47 -43 -55 -20 -2 6 -15 53 -30 102 -14 50 -34 108 -43 129 -9 22 -17 44 -17 50 0 6 -4 26 -9 43 -6 27 2 55 50 170 31 76 74 174 94 218 21 44 52 114 70 155 17 41 47 107 66 145 35 73 276 594 314 680 12 28 39 89 61 136 21 47 39 89 39 92 0 10 179 379 191 394 20 23 42 -18 29 -53 -6 -15 -9 -29 -7 -31 3 -2 24 42 48 99 23 56 51 110 61 120 40 40 25 54 -137 135 -38 19 -78 39 -87 44 -29 15 -42 10 -55 -18z m-803 -2282 c22 -45 16 -56 -40 -67 -31 -7 -32 -6 -25 17 4 13 12 27 18 30 5 4 7 12 3 18 -6 8 10 39 21 41 2 0 12 -18 23 -39z m169 -450 c1 -90 -5 -73 -11 29 -3 47 -2 74 2 60 5 -14 8 -54 9 -89z m-462 3 c-3 -3 -12 -4 -19 -1 -8 3 -5 6 6 6 11 1 17 -2 13 -5z" style="fill: rgb(35, 74, 98);"/>
    <path d="M6282 6540 c-18 -38 -32 -74 -32 -79 0 -6 -9 -30 -19 -53 -34 -76 -48 -112 -71 -183 -13 -38 -77 -180 -143 -315 -189 -387 -285 -587 -334 -695 -25 -55 -60 -131 -78 -170 -18 -38 -36 -81 -40 -95 -4 -14 -11 -29 -15 -35 -4 -5 -24 -50 -45 -99 -31 -72 -35 -90 -24 -97 35 -23 52 -5 92 91 55 134 162 378 247 560 40 85 83 182 97 215 14 33 29 65 33 70 5 6 24 48 43 95 19 47 53 123 75 170 22 47 58 128 80 180 22 52 54 124 70 160 96 210 134 302 128 308 -7 7 -46 -61 -46 -80 0 -9 -6 -23 -13 -30 -7 -7 -18 -26 -25 -42 -7 -16 -15 -27 -17 -24 -5 4 20 80 35 106 12 20 40 105 37 109 -2 1 -17 -29 -35 -67z m-42 -180 c-6 -11 -13 -20 -16 -20 -2 0 0 9 6 20 6 11 13 20 16 20 2 0 0 -9 -6 -20z m-20 -48 c0 -5 -7 -17 -15 -28 -14 -18 -14 -17 -4 9 12 27 19 34 19 19z"/>
    <path d="M6460 6394 c-6 -14 -23 -45 -39 -68 -16 -23 -45 -74 -64 -112 -19 -38 -60 -116 -91 -174 -31 -58 -81 -156 -112 -218 -30 -62 -65 -129 -78 -150 -103 -164 -404 -751 -519 -1015 -30 -68 -19 -87 24 -41 13 15 38 33 56 40 38 16 93 18 93 4 0 -5 6 -10 13 -10 6 0 19 -4 27 -10 12 -7 9 -17 -19 -56 -27 -37 -30 -44 -13 -35 28 15 30 14 25 -12 -5 -27 24 -64 39 -49 5 5 11 28 13 51 2 22 13 53 24 67 12 15 21 31 21 36 0 9 184 385 219 448 11 19 55 107 99 195 43 88 84 169 90 180 6 11 63 126 128 255 129 261 155 302 187 298 29 -4 75 75 57 97 -14 17 0 21 17 4 7 -7 22 11 52 60 22 38 41 76 41 85 0 26 -81 78 -204 131 -72 31 -74 31 -86 -1z m65 -34 c3 -5 -3 -10 -14 -10 -12 0 -21 5 -21 10 0 6 6 10 14 10 8 0 18 -4 21 -10z m-35 -25 c10 -12 10 -15 -4 -15 -9 0 -16 7 -16 15 0 8 2 15 4 15 2 0 9 -7 16 -15z m72 -34 c14 -16 35 -34 49 -41 15 -8 19 -15 11 -18 -7 -2 -28 6 -48 17 -19 12 -46 21 -60 21 -15 0 -23 4 -19 10 4 6 10 8 15 5 4 -3 6 4 3 15 -8 30 21 25 49 -9z m63 -7 l30 -26 -35 23 c-45 29 -45 29 -34 29 5 0 23 -12 39 -26z m-125 -154 c24 -19 24 -20 3 -20 -32 0 -53 10 -53 26 0 20 21 17 50 -6z" style="fill: rgb(35, 74, 98);"/>
    <path d="M5013 4635 c0 -33 2 -45 4 -27 2 18 2 45 0 60 -2 15 -4 0 -4 -33z"/>
    <path d="M5705 4570 c-3 -5 -2 -10 4 -10 5 0 13 5 16 10 3 6 2 10 -4 10 -5 0 -13 -4 -16 -10z"/>
    <path d="M5022 4542 c0 -15 -2 -41 -6 -59 -4 -17 -3 -34 2 -37 14 -8 19 12 16 61 -1 24 2 40 7 37 5 -3 9 -1 9 4 0 6 -7 12 -15 16 -12 4 -15 -1 -13 -22z"/>
    <path d="M1250 3421 l0 -1011 685 0 685 0 0 205 0 205 -445 0 -445 0 0 205 0 205 375 0 375 0 0 205 0 205 -375 0 -375 0 0 190 0 190 433 2 432 3 -4 195 c-2 107 -7 197 -11 200 -5 3 -306 7 -669 9 l-661 3 0 -1011z" style="fill: rgb(57, 91, 100);"/>
    <path d="M8055 3934 c-196 -32 -435 -131 -435 -179 0 -11 40 -107 102 -247 l21 -47 41 34 c81 66 242 116 373 115 147 0 200 -32 223 -134 14 -63 21 -174 11 -180 -4 -3 -36 2 -72 10 -49 12 -99 15 -214 11 -168 -6 -232 -20 -342 -74 -168 -82 -263 -238 -263 -433 1 -97 13 -148 57 -238 59 -120 191 -219 317 -238 62 -9 178 -9 242 0 111 16 253 82 308 144 l19 22 31 -53 c55 -92 167 -123 324 -91 76 15 175 55 187 74 9 14 -12 49 -57 95 -21 22 -51 60 -66 85 l-27 45 -6 435 c-6 469 -8 483 -63 581 -101 177 -266 257 -546 264 -74 2 -148 1 -165 -1z m320 -878 c7 -3 10 -59 7 -162 -3 -143 -5 -162 -25 -192 -29 -43 -109 -88 -172 -96 -89 -12 -190 42 -220 117 -20 50 -19 150 2 194 30 65 141 134 233 145 28 3 159 -1 175 -6z" style="fill: rgb(57, 91, 100);"/>
    <path d="M5768 3915 c-91 -25 -172 -71 -242 -139 -37 -36 -70 -66 -72 -66 -2 0 -4 43 -4 95 l0 95 -225 0 -225 0 0 -754 0 -754 45 -3 c25 -2 127 -4 227 -4 l183 0 5 525 5 525 33 57 c42 74 89 98 188 98 95 0 130 -20 169 -95 l30 -59 5 -525 5 -526 223 -3 222 -3 0 494 c0 272 3 515 6 541 12 81 111 173 207 191 67 13 170 -58 211 -145 21 -44 21 -56 21 -560 l0 -515 220 0 220 0 3 475 c3 476 -4 639 -32 730 -53 171 -141 273 -275 318 -66 22 -212 29 -285 12 -126 -28 -243 -112 -297 -215 -13 -25 -26 -45 -29 -45 -3 0 -27 36 -53 79 -61 102 -113 143 -226 180 -45 15 -204 12 -263 -4z" style="fill: rgb(57, 91, 100);"/>
    <path d="M2788 3823 c58 -93 149 -234 295 -459 l108 -167 -34 -51 c-19 -28 -56 -87 -83 -131 -26 -44 -89 -143 -139 -220 -50 -77 -106 -165 -123 -195 -18 -30 -53 -86 -77 -125 -25 -38 -45 -73 -45 -77 0 -5 109 -8 243 -8 l242 0 115 191 c63 105 126 211 140 235 14 24 29 42 34 41 7 -2 50 -73 145 -238 14 -26 50 -87 80 -137 54 -89 55 -90 100 -96 77 -10 451 -6 451 5 0 5 -8 22 -19 37 -10 15 -57 86 -103 157 -46 72 -97 150 -114 174 -16 24 -38 60 -50 80 -11 20 -48 79 -82 131 -106 166 -144 231 -139 244 3 7 50 80 106 163 56 84 101 154 101 157 0 3 15 26 33 52 17 25 65 96 105 158 40 61 83 121 95 134 l21 22 -248 -2 -247 -3 -17 -30 c-9 -16 -26 -46 -38 -65 -11 -19 -36 -62 -54 -95 -18 -33 -42 -73 -52 -90 -10 -16 -28 -49 -40 -72 -12 -24 -25 -43 -28 -43 -3 0 -14 15 -24 33 -10 17 -40 66 -66 107 -26 41 -71 116 -101 167 l-54 92 -243 1 -242 0 48 -77z" style="fill: rgb(57, 91, 100);"/>
    <path d="M4275 3143 l0 -758 218 -2 217 -1 2 734 c1 404 2 744 2 757 l1 22 -220 3 -220 2 0 -757z" style="fill: rgb(57, 91, 100);"/>
    <path d="M10080 80 l0 -80 80 0 80 0 0 80 0 80 -80 0 -80 0 0 -80z"/>
  </g>
</svg>