<svg width="146" height="146" viewBox="0 0 146 146" fill="none" xmlns="http://www.w3.org/2000/svg">
<path d="M146 72.9999C146.013 82.8819 144.013 92.6629 140.121 101.746L139.879 102.304C133.296 117.279 121.882 129.615 107.461 137.338C93.0404 145.061 76.4465 147.725 60.3329 144.905C59.8945 144.827 59.4568 144.746 59.0198 144.663C54.5044 143.788 50.0828 142.484 45.815 140.769C45.1217 140.49 44.4335 140.202 43.7503 139.903C43.2838 139.7 42.8173 139.49 42.3551 139.274C29.7117 133.414 19.007 124.062 11.5027 112.32C3.99847 100.578 0.00742236 86.9352 0 72.9999C0 32.6837 32.6837 0 72.9999 0C113.316 0 146 32.6837 146 72.9999Z" fill="#395B64"/>
<path opacity="0.2" d="M60.3355 144.905C59.897 144.828 59.4593 144.747 59.0223 144.664C58.7373 136.39 57.7589 119.407 54.422 101.622C52.5971 91.8876 50.0637 81.9095 46.5497 72.9897C45.3459 69.9034 43.9709 66.8865 42.4311 63.9533C38.8804 57.2472 34.5739 51.6016 29.3516 47.7767L30.1204 46.7271C34.4637 49.9105 38.3671 54.3798 41.8307 60.1348C42.8695 61.8583 43.8673 63.697 44.8241 65.6509C45.85 67.7415 46.8284 69.961 47.7592 72.3094C48.3531 73.804 48.9269 75.3504 49.4805 76.9486C51.8908 83.8879 53.9397 91.8056 55.6272 100.702C56.0009 102.667 56.3565 104.681 56.6941 106.742C59.3096 122.718 60.0979 137.489 60.3355 144.905Z" fill="black"/>
<path opacity="0.2" d="M43.7493 139.903C43.2828 139.7 42.8163 139.49 42.3541 139.274C41.9027 134.371 41.0733 128.29 39.5572 122.517C38.8931 119.924 38.0406 117.383 37.0065 114.914C35.2765 110.865 33.0369 107.422 30.1406 105.299L30.9095 104.251C33.9418 106.472 36.2808 109.981 38.0885 114.087C40.1252 118.713 41.4837 124.097 42.3886 129.242C43.0603 133.063 43.4836 136.754 43.7493 139.903Z" fill="black"/>
<path opacity="0.2" d="M24.1781 103.686C27.7671 103.686 30.6765 100.777 30.6765 97.1879C30.6765 93.5989 27.7671 90.6895 24.1781 90.6895C20.5891 90.6895 17.6797 93.5989 17.6797 97.1879C17.6797 100.777 20.5891 103.686 24.1781 103.686Z" fill="black"/>
<path opacity="0.2" d="M47.8856 52.1621C46.5075 59.9367 49.5496 66.9764 49.5496 66.9764C49.5496 66.9764 54.8258 61.4111 56.2038 53.6366C57.5819 45.862 54.5398 38.8223 54.5398 38.8223C54.5398 38.8223 49.2636 44.3876 47.8856 52.1621Z" fill="black"/>
<path opacity="0.2" d="M26.2896 70.619C33.7052 73.3306 41.1567 71.5905 41.1567 71.5905C41.1567 71.5905 36.5854 65.454 29.1698 62.7424C21.7543 60.0308 14.3027 61.7709 14.3027 61.7709C14.3027 61.7709 18.8741 67.9074 26.2896 70.619Z" fill="black"/>
<path opacity="0.2" d="M25.0312 120.154C30.2289 122.055 35.4592 120.815 35.4592 120.815C35.4592 120.815 32.2624 116.493 27.0647 114.593C21.867 112.692 16.6367 113.932 16.6367 113.932C16.6367 113.932 19.8335 118.253 25.0312 120.154Z" fill="black"/>
<path d="M72.8498 89.1655C88.5674 89.1655 101.309 76.4239 101.309 60.7063C101.309 44.9887 88.5674 32.2471 72.8498 32.2471C57.1322 32.2471 44.3906 44.9887 44.3906 60.7063C44.3906 76.4239 57.1322 89.1655 72.8498 89.1655Z" fill="#D0CDE1"/>
<path d="M61.7324 82.4941C61.7324 82.4941 65.2898 99.3917 65.2898 101.17C65.2898 102.949 82.1875 110.953 82.1875 110.953L97.3064 108.285L102.643 92.2769C102.643 92.2769 93.749 78.9367 93.749 73.6006L61.7324 82.4941Z" fill="#D0CDE1"/>
<path d="M140.121 101.746L139.879 102.304C133.296 117.279 121.882 129.615 107.461 137.338C93.0404 145.061 76.4465 147.725 60.3329 144.905C59.8945 144.827 59.4568 144.746 59.0198 144.663C54.5044 143.788 50.0828 142.484 45.815 140.769C45.1217 140.49 44.4335 140.202 43.7503 139.903C43.2838 139.7 42.8172 139.49 42.3551 139.274C38.1657 137.333 34.1702 134.999 30.4224 132.303L27.0488 122.517L28.9451 121.07L32.8456 118.091L37.0075 114.914L38.0895 114.087L54.4195 101.621L55.6246 100.701L64.1125 94.2217L64.1146 94.2195C64.1146 94.2195 73.2936 109.176 86.6345 104.729C99.9753 100.282 99.6837 87.5308 99.6837 87.5308L140.121 101.746Z" fill="#2F2E41"/>
<path d="M48.1717 37.7769C48.1717 37.7769 57.2074 18.1996 74.5258 22.7174C91.8442 27.2352 101.633 34.012 102.386 40.7888C103.139 47.5655 102.009 57.7307 102.009 57.7307C102.009 57.7307 100.127 43.8007 88.0793 46.8126C76.0317 49.8245 57.2074 47.5655 57.2074 47.5655L54.1955 74.6726C54.1955 74.6726 50.8071 69.7783 47.0422 72.7902C43.2774 75.8021 36.1241 43.8007 48.1717 37.7769Z" fill="#2F2E41"/>
<path d="M45.8128 140.769C45.1195 140.491 44.4313 140.202 43.7481 139.903C43.2816 139.7 42.8151 139.491 42.3529 139.275C35.4242 136.062 29.0411 131.784 23.4355 126.597C25.4204 123.893 27.0467 122.517 27.0467 122.517H40.3875L42.3874 129.243L45.8128 140.769Z" fill="#2F2E41"/>
</svg>
